<svg version="1.1" xmlns="http://www.w3.org/2000/svg" xmlns:xlink="http://www.w3.org/1999/xlink" x="0px" y="0px" width="23.906px" height="23.906px" viewBox="0 0 23.906 23.906" xml:space="preserve">
<path d="M11.953,0C5.344,0,0,5.344,0,11.953s5.344,11.953,11.953,11.953s11.953-5.344,11.953-11.953
	S18.562,0,11.953,0z M7.922,18.516c-1.266,0-2.297-1.031-2.297-2.297s1.031-2.297,2.297-2.297s2.297,1.031,2.297,2.297
	S9.188,18.516,7.922,18.516z M7.922,10.219c-1.266,0-2.297-1.031-2.297-2.297s1.031-2.297,2.297-2.297s2.297,1.031,2.297,2.297
	S9.188,10.219,7.922,10.219z M16.219,18.516c-1.266,0-2.297-1.031-2.297-2.297s1.031-2.297,2.297-2.297s2.297,1.031,2.297,2.297
	S17.484,18.516,16.219,18.516z M16.219,10.219c-1.266,0-2.297-1.031-2.297-2.297s1.031-2.297,2.297-2.297s2.297,1.031,2.297,2.297
	S17.484,10.219,16.219,10.219z"/>
</svg>
