<svg version="1.1" id="Capa_1" xmlns="http://www.w3.org/2000/svg" xmlns:xlink="http://www.w3.org/1999/xlink" x="0px" y="0px"
	 viewBox="0 0 32 32" style="enable-background:new 0 0 32 32;" xml:space="preserve">
<g>
	<path d="M32,28c0,1.104-0.896,2-2,2c-1.105,0-2-0.896-2-2s0.895-4,2-4C31.104,24,32,26.896,32,28z M29,13v9
		c0,0.553,0.447,1,1,1c0.552,0,1-0.447,1-1v-9c0-0.553-0.448-1-1-1C29.447,12,29,12.447,29,13z M29.674,10.924L27,11.541V20
		c0,2.654-3.038,5-11,5S5,22.654,5,20v-8.459l-2.675-0.617C0.957,10.608,0,9.406,0,8s0.956-2.608,2.326-2.924l12.999-3
		C15.557,2.024,15.779,2,16,2c0.221,0,0.443,0.024,0.661,0.073l13.013,3.003C31.043,5.392,32,6.594,32,8
		S31.043,10.608,29.674,10.924z M25,12.003l-8.326,1.921C16.444,13.976,16.221,14,16,14s-0.444-0.024-0.662-0.073L7,12.003V20
		c0,1.105,3,3,9,3s9-1.895,9-3V12.003z M29.225,8.975C29.678,8.87,30,8.466,30,8s-0.322-0.87-0.775-0.975l-13-3L16,4l-0.225,0.025
		l-13,3C2.321,7.13,2,7.534,2,8s0.321,0.87,0.775,0.975l13,3L16,12l0.225-0.025L29.225,8.975z"/>
</g>
</svg>
