<svg version="1.1" xmlns="http://www.w3.org/2000/svg" xmlns:xlink="http://www.w3.org/1999/xlink" x="0px" y="0px"
	 viewBox="0 0 29.751 29.751" style="enable-background:new 0 0 29.751 29.751;" xml:space="preserve">
<g>
	<path d="M28.921,26.344c-0.188-0.124-3.577-2.347-8.621-3.438c1.85-2.345,3.038-5.496,3.543-7.595
		c0.701-2.909,0.429-8.599-2.364-12.145C19.846,1.094,17.562,0,14.874,0C12.185,0,9.901,1.095,8.27,3.167
		c-2.793,3.545-3.064,9.235-2.364,12.144c0.505,2.098,1.692,5.25,3.543,7.595c-5.044,1.091-8.434,3.314-8.62,3.438
		c-0.681,0.454-0.986,1.303-0.748,2.084c0.236,0.786,0.96,1.323,1.779,1.323h26.031c0.819,0,1.541-0.537,1.779-1.321
		C29.907,27.645,29.602,26.797,28.921,26.344z M7.587,9.992c0.507-3.978,2.786-8.133,7.286-8.133s6.779,4.156,7.287,8.134
		c0.551,4.142-0.729,8.477-3.32,11.76l-0.303,0.386c-2.218,2.547-5.109,2.547-7.325,0l-0.304-0.386
		C8.319,18.473,7.034,14.132,7.587,9.992z M1.857,27.891c0.128-0.086,3.278-2.15,7.982-3.168l2.309-0.498
		c0.825,0.541,1.729,0.879,2.724,0.879c0.996,0,1.898-0.338,2.724-0.879l2.31,0.498c4.667,1.01,7.806,3.053,7.981,3.168H1.857z"/>
</g>
</svg>
