<svg version="1.1" xmlns="http://www.w3.org/2000/svg" xmlns:xlink="http://www.w3.org/1999/xlink" x="0px" y="0px"
	 viewBox="0 0 32.001 32.001" style="enable-background:new 0 0 32.001 32.001;" xml:space="preserve">
<g>
	<path d="M20,0c-6.627,0-12,5.373-12,12c0,2.026,0.507,3.933,1.395,5.608L1.052,25.95l0.007,0.006
		c-0.652,0.641-1.058,1.529-1.058,2.516c0,1.949,1.58,3.529,3.529,3.529c0.985,0,1.874-0.406,2.515-1.059L6.043,30.94l8.341-8.34
		C16.059,23.491,17.969,24,20,24c6.627,0,12-5.373,12-12S26.628,0,20,0z M4.796,29.692c-0.322,0.334-0.768,0.543-1.266,0.543
		c-0.975,0-1.765-0.789-1.765-1.764c0-0.498,0.21-0.943,0.543-1.266l-0.009-0.008l8.066-8.066c0.705,0.951,1.545,1.791,2.494,2.498
		L4.796,29.692z M20,22.001c-5.522,0-10-4.479-10-10c0-5.522,4.478-10,10-10c5.521,0,10,4.478,10,10
		C30,17.522,25.521,22.001,20,22.001z"/>
	<path d="M20,5c-3.867,0-7,3.134-7,7c0,0.276,0.224,0.5,0.5,0.5s0.5-0.224,0.5-0.5c0-3.313,2.686-6,6-6
		c0.275,0,0.5-0.224,0.5-0.5S20.275,5,20,5z"/>
</g>
</svg>
